# xmcd
#
# Track frame offsets:
#	150
#	19456
#	37966
#	62093
#	89523
#	108798
#	136177
#	161448
#	190773
#	218272
#	245518
#	272090
#
# Disc length: 3943 seconds
#
# Revision: 1
# Processed by: cddbd v1.5.2PL0 Copyright (c) Steve Scherf et al.
# Submitted via: audiograbber 1.83.01
#
DISCID=9a0f650c
DTITLE=Various Artist - XMiX Dance Series 167
DYEAR=2013
DGENRE=Dance
TTITLE0=Pitbull Feat. Christina Aguilera - Feel This Moment
TTITLE1=David Guetta Feat. Ne-Yo and Akon - Play Hard
TTITLE2=Armin Van Buuren Feat. Trevor Guthrie - This Is What It Feels Like
TTITLE3=Wallpaper - Good 4 It
TTITLE4=NERVO - Hold On
TTITLE5=Mat Zo and Porter Robinson - Easy
TTITLE6=Kelly Clarkson - People Like Us
TTITLE7=Kaskade and Swanky Tunes Feat. Lights - No One Knows Who We Are
TTITLE8=Capital Cities - Safe And Sound
TTITLE9=Bingo Players Feat. Far East Movement - Get Up (Rattle)
TTITLE10=The Aston Shuffle Vs. Tommy Trash - Sunrise (Won't Get Lost)
TTITLE11=Demi Lovato - Heart Attack
EXTD=
EXTT0=
EXTT1=
EXTT2=
EXTT3=
EXTT4=
EXTT5=
EXTT6=
EXTT7=
EXTT8=
EXTT9=
EXTT10=
EXTT11=
PLAYORDER=
